<?xml version="1.0" encoding="UTF-8" standalone="no"?>
<!-- Generator: Adobe Illustrator 12.0.1, SVG Export Plug-In . SVG Version: 6.00 Build 51448)  -->

<svg
   xmlns:a="http://ns.adobe.com/AdobeSVGViewerExtensions/3.0/"
   xmlns:i="http://ns.adobe.com/AdobeIllustrator/10.0/"
   xmlns:dc="http://purl.org/dc/elements/1.1/"
   xmlns:cc="http://creativecommons.org/ns#"
   xmlns:rdf="http://www.w3.org/1999/02/22-rdf-syntax-ns#"
   xmlns:svg="http://www.w3.org/2000/svg"
   xmlns="http://www.w3.org/2000/svg"
   xmlns:xlink="http://www.w3.org/1999/xlink"
   xmlns:sodipodi="http://sodipodi.sourceforge.net/DTD/sodipodi-0.dtd"
   xmlns:inkscape="http://www.inkscape.org/namespaces/inkscape"
   version="1.1"
   id="Layer_1"
   width="201.26077"
   height="284.11765"
   viewBox="0 0 201.26077 284.11764"
   overflow="visible"
   enable-background="new 0 0 198.13 197.58"
   xml:space="preserve"
   inkscape:version="0.48.4 r9939"
   sodipodi:docname="ruby.svg"
   style="overflow:visible"><metadata
     id="metadata3320"><rdf:RDF><cc:Work
         rdf:about=""><dc:format>image/svg+xml</dc:format><dc:type
           rdf:resource="http://purl.org/dc/dcmitype/StillImage" /><dc:title></dc:title></cc:Work></rdf:RDF></metadata><defs
     id="defs3489"><linearGradient
       id="XMLID_17_-9"
       gradientUnits="userSpaceOnUse"
       x1="174.0737"
       y1="215.5488"
       x2="132.27631"
       y2="141.7533"><stop
         offset="0"
         style="stop-color:#FB7655"
         id="stop3272-4" /><stop
         offset="0"
         style="stop-color:#FB7655"
         id="stop3274-5" /><stop
         offset="0.41"
         style="stop-color:#E42B1E"
         id="stop3276-1" /><stop
         offset="0.99"
         style="stop-color:#990000"
         id="stop3278-0" /><stop
         offset="1"
         style="stop-color:#990000"
         id="stop3280-3" /></linearGradient><linearGradient
       id="XMLID_18_-7"
       gradientUnits="userSpaceOnUse"
       x1="194.895"
       y1="153.5576"
       x2="141.0276"
       y2="117.4093"><stop
         offset="0"
         style="stop-color:#871101"
         id="stop3285-8" /><stop
         offset="0"
         style="stop-color:#871101"
         id="stop3287-8" /><stop
         offset="0.99"
         style="stop-color:#911209"
         id="stop3289-6" /><stop
         offset="1"
         style="stop-color:#911209"
         id="stop3291-0" /></linearGradient><linearGradient
       id="XMLID_19_-4"
       gradientUnits="userSpaceOnUse"
       x1="151.79539"
       y1="217.7852"
       x2="97.929703"
       y2="181.638"><stop
         offset="0"
         style="stop-color:#871101"
         id="stop3296-6" /><stop
         offset="0"
         style="stop-color:#871101"
         id="stop3298-7" /><stop
         offset="0.99"
         style="stop-color:#911209"
         id="stop3300-6" /><stop
         offset="1"
         style="stop-color:#911209"
         id="stop3302-0" /></linearGradient><linearGradient
       id="XMLID_20_-9"
       gradientUnits="userSpaceOnUse"
       x1="38.696301"
       y1="127.3906"
       x2="47.046902"
       y2="181.66141"><stop
         offset="0"
         style="stop-color:#FFFFFF"
         id="stop3307-7" /><stop
         offset="0"
         style="stop-color:#FFFFFF"
         id="stop3309-5" /><stop
         offset="0.23"
         style="stop-color:#E57252"
         id="stop3311-9" /><stop
         offset="0.46"
         style="stop-color:#DE3B20"
         id="stop3313-7" /><stop
         offset="0.99"
         style="stop-color:#A60003"
         id="stop3315-8" /><stop
         offset="1"
         style="stop-color:#A60003"
         id="stop3317-5" /></linearGradient><linearGradient
       id="XMLID_21_-3"
       gradientUnits="userSpaceOnUse"
       x1="96.132797"
       y1="76.715302"
       x2="99.209602"
       y2="132.1021"><stop
         offset="0"
         style="stop-color:#FFFFFF"
         id="stop3322-3" /><stop
         offset="0"
         style="stop-color:#FFFFFF"
         id="stop3324-8" /><stop
         offset="0.23"
         style="stop-color:#E4714E"
         id="stop3326-3" /><stop
         offset="0.56"
         style="stop-color:#BE1A0D"
         id="stop3328-7" /><stop
         offset="0.99"
         style="stop-color:#A80D00"
         id="stop3330-9" /><stop
         offset="1"
         style="stop-color:#A80D00"
         id="stop3332-3" /></linearGradient><linearGradient
       id="XMLID_22_-7"
       gradientUnits="userSpaceOnUse"
       x1="147.103"
       y1="25.521"
       x2="156.3141"
       y2="65.216202"><stop
         offset="0"
         style="stop-color:#FFFFFF"
         id="stop3337-8" /><stop
         offset="0"
         style="stop-color:#FFFFFF"
         id="stop3339-7" /><stop
         offset="0.18"
         style="stop-color:#E46342"
         id="stop3341-4" /><stop
         offset="0.4"
         style="stop-color:#C82410"
         id="stop3343-1" /><stop
         offset="0.99"
         style="stop-color:#A80D00"
         id="stop3345-9" /><stop
         offset="1"
         style="stop-color:#A80D00"
         id="stop3347-0" /></linearGradient><linearGradient
       id="XMLID_23_-9"
       gradientUnits="userSpaceOnUse"
       x1="118.9761"
       y1="11.5415"
       x2="158.66859"
       y2="-8.3048"><stop
         offset="0"
         style="stop-color:#FFFFFF"
         id="stop3352-8" /><stop
         offset="0"
         style="stop-color:#FFFFFF"
         id="stop3354-8" /><stop
         offset="0.54"
         style="stop-color:#C81F11"
         id="stop3356-5" /><stop
         offset="0.99"
         style="stop-color:#BF0905"
         id="stop3358-8" /><stop
         offset="1"
         style="stop-color:#BF0905"
         id="stop3360-4" /></linearGradient><linearGradient
       id="XMLID_24_-3"
       gradientUnits="userSpaceOnUse"
       x1="3.9033"
       y1="113.5547"
       x2="7.1701999"
       y2="146.2628"><stop
         offset="0"
         style="stop-color:#FFFFFF"
         id="stop3365-7" /><stop
         offset="0"
         style="stop-color:#FFFFFF"
         id="stop3367-1" /><stop
         offset="0.31"
         style="stop-color:#DE4024"
         id="stop3369-3" /><stop
         offset="0.99"
         style="stop-color:#BF190B"
         id="stop3371-8" /><stop
         offset="1"
         style="stop-color:#BF190B"
         id="stop3373-0" /></linearGradient><linearGradient
       id="XMLID_25_-9"
       gradientUnits="userSpaceOnUse"
       x1="-18.5557"
       y1="155.10451"
       x2="135.0152"
       y2="-2.8092999"><stop
         offset="0"
         style="stop-color:#BD0012"
         id="stop3380-7" /><stop
         offset="0"
         style="stop-color:#BD0012"
         id="stop3382-9" /><stop
         offset="0.07"
         style="stop-color:#FFFFFF"
         id="stop3384-9" /><stop
         offset="0.17"
         style="stop-color:#FFFFFF"
         id="stop3386-3" /><stop
         offset="0.27"
         style="stop-color:#C82F1C"
         id="stop3388-2" /><stop
         offset="0.33"
         style="stop-color:#820C01"
         id="stop3390-4" /><stop
         offset="0.46"
         style="stop-color:#A31601"
         id="stop3392-3" /><stop
         offset="0.72"
         style="stop-color:#B31301"
         id="stop3394-7" /><stop
         offset="0.99"
         style="stop-color:#E82609"
         id="stop3396-1" /><stop
         offset="1"
         style="stop-color:#E82609"
         id="stop3398-2" /></linearGradient><linearGradient
       id="XMLID_26_-2"
       gradientUnits="userSpaceOnUse"
       x1="99.074699"
       y1="171.0332"
       x2="52.817699"
       y2="159.61659"><stop
         offset="0"
         style="stop-color:#8C0C01"
         id="stop3403-0" /><stop
         offset="0"
         style="stop-color:#8C0C01"
         id="stop3405-2" /><stop
         offset="0.54"
         style="stop-color:#990C00"
         id="stop3407-1" /><stop
         offset="0.99"
         style="stop-color:#A80D0E"
         id="stop3409-7" /><stop
         offset="1"
         style="stop-color:#A80D0E"
         id="stop3411-5" /></linearGradient><linearGradient
       id="XMLID_27_-1"
       gradientUnits="userSpaceOnUse"
       x1="178.52589"
       y1="115.5146"
       x2="137.43269"
       y2="78.683998"><stop
         offset="0"
         style="stop-color:#7E110B"
         id="stop3416-7" /><stop
         offset="0"
         style="stop-color:#7E110B"
         id="stop3418-4" /><stop
         offset="0.99"
         style="stop-color:#9E0C00"
         id="stop3420-1" /><stop
         offset="1"
         style="stop-color:#9E0C00"
         id="stop3422-7" /></linearGradient><linearGradient
       id="XMLID_28_-1"
       gradientUnits="userSpaceOnUse"
       x1="193.6235"
       y1="47.937"
       x2="173.15421"
       y2="26.053801"><stop
         offset="0"
         style="stop-color:#79130D"
         id="stop3427-1" /><stop
         offset="0"
         style="stop-color:#79130D"
         id="stop3429-1" /><stop
         offset="0.99"
         style="stop-color:#9E120B"
         id="stop3431-7" /><stop
         offset="1"
         style="stop-color:#9E120B"
         id="stop3433-0" /></linearGradient><radialGradient
       id="XMLID_29_-4"
       cx="143.8315"
       cy="79.388199"
       r="50.357601"
       gradientUnits="userSpaceOnUse"><stop
         offset="0"
         style="stop-color:#A80D00"
         id="stop3440-0" /><stop
         offset="0"
         style="stop-color:#A80D00"
         id="stop3442-8" /><stop
         offset="0.99"
         style="stop-color:#7E0E08"
         id="stop3444-5" /><stop
         offset="1"
         style="stop-color:#7E0E08"
         id="stop3446-1" /></radialGradient><radialGradient
       id="XMLID_30_-6"
       cx="74.0923"
       cy="145.75101"
       r="66.943703"
       gradientUnits="userSpaceOnUse"><stop
         offset="0"
         style="stop-color:#A30C00"
         id="stop3451-6" /><stop
         offset="0"
         style="stop-color:#A30C00"
         id="stop3453-2" /><stop
         offset="0.99"
         style="stop-color:#800E08"
         id="stop3455-1" /><stop
         offset="1"
         style="stop-color:#800E08"
         id="stop3457-9" /></radialGradient><linearGradient
       id="XMLID_31_-6"
       gradientUnits="userSpaceOnUse"
       x1="26.669901"
       y1="197.33591"
       x2="9.9886999"
       y2="140.742"><stop
         offset="0"
         style="stop-color:#8B2114"
         id="stop3462-4" /><stop
         offset="0"
         style="stop-color:#8B2114"
         id="stop3464-8" /><stop
         offset="0.43"
         style="stop-color:#9E100A"
         id="stop3466-0" /><stop
         offset="0.99"
         style="stop-color:#B3100C"
         id="stop3468-8" /><stop
         offset="1"
         style="stop-color:#B3100C"
         id="stop3470-1" /></linearGradient><linearGradient
       id="XMLID_32_-0"
       gradientUnits="userSpaceOnUse"
       x1="154.6411"
       y1="9.7979002"
       x2="192.039"
       y2="26.305901"><stop
         offset="0"
         style="stop-color:#B31000"
         id="stop3475-2" /><stop
         offset="0"
         style="stop-color:#B31000"
         id="stop3477-2" /><stop
         offset="0.44"
         style="stop-color:#910F08"
         id="stop3479-9" /><stop
         offset="0.99"
         style="stop-color:#791C12"
         id="stop3481-7" /><stop
         offset="1"
         style="stop-color:#791C12"
         id="stop3483-5" /></linearGradient><linearGradient
       inkscape:collect="always"
       xlink:href="#linearGradient4649"
       id="linearGradient4647"
       x1="52.675999"
       y1="39.588753"
       x2="170.545"
       y2="39.588753"
       gradientUnits="userSpaceOnUse" /><linearGradient
       y2="101.7734"
       x2="113.8466"
       y1="79.043503"
       x1="108.5723"
       gradientUnits="userSpaceOnUse"
       id="linearGradient4649"><stop
         id="stop4651"
         style="stop-color:#ff0000;stop-opacity:1;"
         offset="0" /><stop
         offset="1"
         style="stop-color:#cc0000;stop-opacity:1;"
         id="stop4667" /><a:midPointStop
         style="stop-color:#FFFFFF"
         offset="0" /><a:midPointStop
         style="stop-color:#FFFFFF"
         offset="0.5" /><a:midPointStop
         style="stop-color:#FFFFFF"
         offset="0" /><a:midPointStop
         style="stop-color:#FFFFFF"
         offset="0.5" /><a:midPointStop
         style="stop-color:#E46342"
         offset="0.18" /><a:midPointStop
         style="stop-color:#E46342"
         offset="0.5" /><a:midPointStop
         style="stop-color:#C82410"
         offset="0.4" /><a:midPointStop
         style="stop-color:#C82410"
         offset="0.5" /><a:midPointStop
         style="stop-color:#A80D00"
         offset="0.99" /><a:midPointStop
         style="stop-color:#A80D00"
         offset="0.5" /><a:midPointStop
         style="stop-color:#A80D00"
         offset="1" /></linearGradient><linearGradient
       inkscape:collect="always"
       xlink:href="#linearGradient4649"
       id="linearGradient4683"
       x1="52.675999"
       y1="39.588753"
       x2="170.545"
       y2="39.588753"
       gradientUnits="userSpaceOnUse" /><linearGradient
       y2="101.7734"
       x2="113.8466"
       y1="79.043503"
       x1="108.5723"
       gradientUnits="userSpaceOnUse"
       id="linearGradient4685"><stop
         id="stop4687"
         style="stop-color:#ff0000;stop-opacity:1;"
         offset="0" /><stop
         offset="1"
         style="stop-color:#cc0000;stop-opacity:1;"
         id="stop4689" /><a:midPointStop
         style="stop-color:#FFFFFF"
         offset="0" /><a:midPointStop
         style="stop-color:#FFFFFF"
         offset="0.5" /><a:midPointStop
         style="stop-color:#FFFFFF"
         offset="0" /><a:midPointStop
         style="stop-color:#FFFFFF"
         offset="0.5" /><a:midPointStop
         style="stop-color:#E46342"
         offset="0.18" /><a:midPointStop
         style="stop-color:#E46342"
         offset="0.5" /><a:midPointStop
         style="stop-color:#C82410"
         offset="0.4" /><a:midPointStop
         style="stop-color:#C82410"
         offset="0.5" /><a:midPointStop
         style="stop-color:#A80D00"
         offset="0.99" /><a:midPointStop
         style="stop-color:#A80D00"
         offset="0.5" /><a:midPointStop
         style="stop-color:#A80D00"
         offset="1" /></linearGradient><linearGradient
       inkscape:collect="always"
       xlink:href="#linearGradient4649"
       id="linearGradient4691"
       x1="52.675999"
       y1="39.588753"
       x2="170.545"
       y2="39.588753"
       gradientUnits="userSpaceOnUse" /><linearGradient
       y2="101.7734"
       x2="113.8466"
       y1="79.043503"
       x1="108.5723"
       gradientUnits="userSpaceOnUse"
       id="linearGradient4693"><stop
         id="stop4695"
         style="stop-color:#ff0000;stop-opacity:1;"
         offset="0" /><stop
         offset="1"
         style="stop-color:#cc0000;stop-opacity:1;"
         id="stop4697" /><a:midPointStop
         style="stop-color:#FFFFFF"
         offset="0" /><a:midPointStop
         style="stop-color:#FFFFFF"
         offset="0.5" /><a:midPointStop
         style="stop-color:#FFFFFF"
         offset="0" /><a:midPointStop
         style="stop-color:#FFFFFF"
         offset="0.5" /><a:midPointStop
         style="stop-color:#E46342"
         offset="0.18" /><a:midPointStop
         style="stop-color:#E46342"
         offset="0.5" /><a:midPointStop
         style="stop-color:#C82410"
         offset="0.4" /><a:midPointStop
         style="stop-color:#C82410"
         offset="0.5" /><a:midPointStop
         style="stop-color:#A80D00"
         offset="0.99" /><a:midPointStop
         style="stop-color:#A80D00"
         offset="0.5" /><a:midPointStop
         style="stop-color:#A80D00"
         offset="1" /></linearGradient><linearGradient
       inkscape:collect="always"
       xlink:href="#linearGradient4649"
       id="linearGradient4699"
       x1="52.675999"
       y1="39.588753"
       x2="170.545"
       y2="39.588753"
       gradientUnits="userSpaceOnUse" /><linearGradient
       y2="101.7734"
       x2="113.8466"
       y1="79.043503"
       x1="108.5723"
       gradientUnits="userSpaceOnUse"
       id="linearGradient4701"><stop
         id="stop4703"
         style="stop-color:#ff0000;stop-opacity:1;"
         offset="0" /><stop
         offset="1"
         style="stop-color:#cc0000;stop-opacity:1;"
         id="stop4705" /><a:midPointStop
         style="stop-color:#FFFFFF"
         offset="0" /><a:midPointStop
         style="stop-color:#FFFFFF"
         offset="0.5" /><a:midPointStop
         style="stop-color:#FFFFFF"
         offset="0" /><a:midPointStop
         style="stop-color:#FFFFFF"
         offset="0.5" /><a:midPointStop
         style="stop-color:#E46342"
         offset="0.18" /><a:midPointStop
         style="stop-color:#E46342"
         offset="0.5" /><a:midPointStop
         style="stop-color:#C82410"
         offset="0.4" /><a:midPointStop
         style="stop-color:#C82410"
         offset="0.5" /><a:midPointStop
         style="stop-color:#A80D00"
         offset="0.99" /><a:midPointStop
         style="stop-color:#A80D00"
         offset="0.5" /><a:midPointStop
         style="stop-color:#A80D00"
         offset="1" /></linearGradient><linearGradient
       inkscape:collect="always"
       xlink:href="#linearGradient4649"
       id="linearGradient4707"
       x1="52.675999"
       y1="39.588753"
       x2="170.545"
       y2="39.588753"
       gradientUnits="userSpaceOnUse" /><linearGradient
       y2="101.7734"
       x2="113.8466"
       y1="79.043503"
       x1="108.5723"
       gradientUnits="userSpaceOnUse"
       id="linearGradient4709"><stop
         id="stop4711"
         style="stop-color:#ff0000;stop-opacity:1;"
         offset="0" /><stop
         offset="1"
         style="stop-color:#cc0000;stop-opacity:1;"
         id="stop4713" /><a:midPointStop
         style="stop-color:#FFFFFF"
         offset="0" /><a:midPointStop
         style="stop-color:#FFFFFF"
         offset="0.5" /><a:midPointStop
         style="stop-color:#FFFFFF"
         offset="0" /><a:midPointStop
         style="stop-color:#FFFFFF"
         offset="0.5" /><a:midPointStop
         style="stop-color:#E46342"
         offset="0.18" /><a:midPointStop
         style="stop-color:#E46342"
         offset="0.5" /><a:midPointStop
         style="stop-color:#C82410"
         offset="0.4" /><a:midPointStop
         style="stop-color:#C82410"
         offset="0.5" /><a:midPointStop
         style="stop-color:#A80D00"
         offset="0.99" /><a:midPointStop
         style="stop-color:#A80D00"
         offset="0.5" /><a:midPointStop
         style="stop-color:#A80D00"
         offset="1" /></linearGradient><linearGradient
       inkscape:collect="always"
       xlink:href="#XMLID_17_-9"
       id="linearGradient5323"
       gradientUnits="userSpaceOnUse"
       x1="174.0737"
       y1="215.5488"
       x2="132.27631"
       y2="141.7533" /><linearGradient
       inkscape:collect="always"
       xlink:href="#XMLID_18_-7"
       id="linearGradient5325"
       gradientUnits="userSpaceOnUse"
       x1="194.895"
       y1="153.5576"
       x2="141.0276"
       y2="117.4093" /><linearGradient
       inkscape:collect="always"
       xlink:href="#XMLID_19_-4"
       id="linearGradient5327"
       gradientUnits="userSpaceOnUse"
       x1="151.79539"
       y1="217.7852"
       x2="97.929703"
       y2="181.638" /><linearGradient
       inkscape:collect="always"
       xlink:href="#XMLID_20_-9"
       id="linearGradient5329"
       gradientUnits="userSpaceOnUse"
       x1="38.696301"
       y1="127.3906"
       x2="47.046902"
       y2="181.66141" /><linearGradient
       inkscape:collect="always"
       xlink:href="#XMLID_21_-3"
       id="linearGradient5331"
       gradientUnits="userSpaceOnUse"
       x1="96.132797"
       y1="76.715302"
       x2="99.209602"
       y2="132.1021" /><linearGradient
       inkscape:collect="always"
       xlink:href="#XMLID_22_-7"
       id="linearGradient5333"
       gradientUnits="userSpaceOnUse"
       x1="147.103"
       y1="25.521"
       x2="156.3141"
       y2="65.216202" /><linearGradient
       inkscape:collect="always"
       xlink:href="#XMLID_23_-9"
       id="linearGradient5335"
       gradientUnits="userSpaceOnUse"
       x1="118.9761"
       y1="11.5415"
       x2="158.66859"
       y2="-8.3048" /><linearGradient
       inkscape:collect="always"
       xlink:href="#XMLID_24_-3"
       id="linearGradient5337"
       gradientUnits="userSpaceOnUse"
       x1="3.9033"
       y1="113.5547"
       x2="7.1701999"
       y2="146.2628" /><linearGradient
       inkscape:collect="always"
       xlink:href="#XMLID_25_-9"
       id="linearGradient5339"
       gradientUnits="userSpaceOnUse"
       x1="-18.5557"
       y1="155.10451"
       x2="135.0152"
       y2="-2.8092999" /><linearGradient
       inkscape:collect="always"
       xlink:href="#XMLID_26_-2"
       id="linearGradient5341"
       gradientUnits="userSpaceOnUse"
       x1="99.074699"
       y1="171.0332"
       x2="52.817699"
       y2="159.61659" /><linearGradient
       inkscape:collect="always"
       xlink:href="#XMLID_27_-1"
       id="linearGradient5343"
       gradientUnits="userSpaceOnUse"
       x1="178.52589"
       y1="115.5146"
       x2="137.43269"
       y2="78.683998" /><linearGradient
       inkscape:collect="always"
       xlink:href="#XMLID_28_-1"
       id="linearGradient5345"
       gradientUnits="userSpaceOnUse"
       x1="193.6235"
       y1="47.937"
       x2="173.15421"
       y2="26.053801" /><radialGradient
       inkscape:collect="always"
       xlink:href="#XMLID_29_-4"
       id="radialGradient5347"
       gradientUnits="userSpaceOnUse"
       cx="143.8315"
       cy="79.388199"
       r="50.357601" /><radialGradient
       inkscape:collect="always"
       xlink:href="#XMLID_30_-6"
       id="radialGradient5349"
       gradientUnits="userSpaceOnUse"
       cx="74.0923"
       cy="145.75101"
       r="66.943703" /><linearGradient
       inkscape:collect="always"
       xlink:href="#XMLID_31_-6"
       id="linearGradient5351"
       gradientUnits="userSpaceOnUse"
       x1="26.669901"
       y1="197.33591"
       x2="9.9886999"
       y2="140.742" /><linearGradient
       inkscape:collect="always"
       xlink:href="#XMLID_32_-0"
       id="linearGradient5353"
       gradientUnits="userSpaceOnUse"
       x1="154.6411"
       y1="9.7979002"
       x2="192.039"
       y2="26.305901" /></defs><sodipodi:namedview
     pagecolor="#ffffff"
     bordercolor="#666666"
     borderopacity="1"
     objecttolerance="10"
     gridtolerance="10"
     guidetolerance="10"
     inkscape:pageopacity="0"
     inkscape:pageshadow="2"
     inkscape:window-width="958"
     inkscape:window-height="1059"
     id="namedview3487"
     showgrid="false"
     inkscape:zoom="1.3412289"
     inkscape:cx="99.843887"
     inkscape:cy="125.68085"
     inkscape:window-x="0"
     inkscape:window-y="19"
     inkscape:window-maximized="0"
     inkscape:current-layer="Layer_1"
     fit-margin-top="0"
     fit-margin-left="0"
     fit-margin-right="0"
     fit-margin-bottom="0" /><linearGradient
     id="XMLID_17_"
     gradientUnits="userSpaceOnUse"
     x1="174.0737"
     y1="215.5488"
     x2="132.27631"
     y2="141.7533"><stop
       offset="0"
       style="stop-color:#FB7655"
       id="stop3272" /><stop
       offset="0"
       style="stop-color:#FB7655"
       id="stop3274" /><stop
       offset="0.41"
       style="stop-color:#E42B1E"
       id="stop3276" /><stop
       offset="0.99"
       style="stop-color:#990000"
       id="stop3278" /><stop
       offset="1"
       style="stop-color:#990000"
       id="stop3280" /></linearGradient><linearGradient
     id="XMLID_18_"
     gradientUnits="userSpaceOnUse"
     x1="194.895"
     y1="153.5576"
     x2="141.0276"
     y2="117.4093"><stop
       offset="0"
       style="stop-color:#871101"
       id="stop3285" /><stop
       offset="0"
       style="stop-color:#871101"
       id="stop3287" /><stop
       offset="0.99"
       style="stop-color:#911209"
       id="stop3289" /><stop
       offset="1"
       style="stop-color:#911209"
       id="stop3291" /></linearGradient><linearGradient
     id="XMLID_19_"
     gradientUnits="userSpaceOnUse"
     x1="151.79539"
     y1="217.7852"
     x2="97.929703"
     y2="181.638"><stop
       offset="0"
       style="stop-color:#871101"
       id="stop3296" /><stop
       offset="0"
       style="stop-color:#871101"
       id="stop3298" /><stop
       offset="0.99"
       style="stop-color:#911209"
       id="stop3300" /><stop
       offset="1"
       style="stop-color:#911209"
       id="stop3302" /></linearGradient><linearGradient
     id="XMLID_20_"
     gradientUnits="userSpaceOnUse"
     x1="38.696301"
     y1="127.3906"
     x2="47.046902"
     y2="181.66141"><stop
       offset="0"
       style="stop-color:#FFFFFF"
       id="stop3307" /><stop
       offset="0"
       style="stop-color:#FFFFFF"
       id="stop3309" /><stop
       offset="0.23"
       style="stop-color:#E57252"
       id="stop3311" /><stop
       offset="0.46"
       style="stop-color:#DE3B20"
       id="stop3313" /><stop
       offset="0.99"
       style="stop-color:#A60003"
       id="stop3315" /><stop
       offset="1"
       style="stop-color:#A60003"
       id="stop3317" /></linearGradient><linearGradient
     id="XMLID_21_"
     gradientUnits="userSpaceOnUse"
     x1="96.132797"
     y1="76.715302"
     x2="99.209602"
     y2="132.1021"><stop
       offset="0"
       style="stop-color:#FFFFFF"
       id="stop3322" /><stop
       offset="0"
       style="stop-color:#FFFFFF"
       id="stop3324" /><stop
       offset="0.23"
       style="stop-color:#E4714E"
       id="stop3326" /><stop
       offset="0.56"
       style="stop-color:#BE1A0D"
       id="stop3328" /><stop
       offset="0.99"
       style="stop-color:#A80D00"
       id="stop3330" /><stop
       offset="1"
       style="stop-color:#A80D00"
       id="stop3332" /></linearGradient><linearGradient
     id="XMLID_22_"
     gradientUnits="userSpaceOnUse"
     x1="147.103"
     y1="25.521"
     x2="156.3141"
     y2="65.216202"><stop
       offset="0"
       style="stop-color:#FFFFFF"
       id="stop3337" /><stop
       offset="0"
       style="stop-color:#FFFFFF"
       id="stop3339" /><stop
       offset="0.18"
       style="stop-color:#E46342"
       id="stop3341" /><stop
       offset="0.4"
       style="stop-color:#C82410"
       id="stop3343" /><stop
       offset="0.99"
       style="stop-color:#A80D00"
       id="stop3345" /><stop
       offset="1"
       style="stop-color:#A80D00"
       id="stop3347" /></linearGradient><linearGradient
     id="XMLID_23_"
     gradientUnits="userSpaceOnUse"
     x1="118.9761"
     y1="11.5415"
     x2="158.66859"
     y2="-8.3048"><stop
       offset="0"
       style="stop-color:#FFFFFF"
       id="stop3352" /><stop
       offset="0"
       style="stop-color:#FFFFFF"
       id="stop3354" /><stop
       offset="0.54"
       style="stop-color:#C81F11"
       id="stop3356" /><stop
       offset="0.99"
       style="stop-color:#BF0905"
       id="stop3358" /><stop
       offset="1"
       style="stop-color:#BF0905"
       id="stop3360" /></linearGradient><linearGradient
     id="XMLID_24_"
     gradientUnits="userSpaceOnUse"
     x1="3.9033"
     y1="113.5547"
     x2="7.1701999"
     y2="146.2628"><stop
       offset="0"
       style="stop-color:#FFFFFF"
       id="stop3365" /><stop
       offset="0"
       style="stop-color:#FFFFFF"
       id="stop3367" /><stop
       offset="0.31"
       style="stop-color:#DE4024"
       id="stop3369" /><stop
       offset="0.99"
       style="stop-color:#BF190B"
       id="stop3371" /><stop
       offset="1"
       style="stop-color:#BF190B"
       id="stop3373" /></linearGradient><linearGradient
     id="XMLID_25_"
     gradientUnits="userSpaceOnUse"
     x1="-18.5557"
     y1="155.10451"
     x2="135.0152"
     y2="-2.8092999"><stop
       offset="0"
       style="stop-color:#BD0012"
       id="stop3380" /><stop
       offset="0"
       style="stop-color:#BD0012"
       id="stop3382" /><stop
       offset="0.07"
       style="stop-color:#FFFFFF"
       id="stop3384" /><stop
       offset="0.17"
       style="stop-color:#FFFFFF"
       id="stop3386" /><stop
       offset="0.27"
       style="stop-color:#C82F1C"
       id="stop3388" /><stop
       offset="0.33"
       style="stop-color:#820C01"
       id="stop3390" /><stop
       offset="0.46"
       style="stop-color:#A31601"
       id="stop3392" /><stop
       offset="0.72"
       style="stop-color:#B31301"
       id="stop3394" /><stop
       offset="0.99"
       style="stop-color:#E82609"
       id="stop3396" /><stop
       offset="1"
       style="stop-color:#E82609"
       id="stop3398" /></linearGradient><linearGradient
     id="XMLID_26_"
     gradientUnits="userSpaceOnUse"
     x1="99.074699"
     y1="171.0332"
     x2="52.817699"
     y2="159.61659"><stop
       offset="0"
       style="stop-color:#8C0C01"
       id="stop3403" /><stop
       offset="0"
       style="stop-color:#8C0C01"
       id="stop3405" /><stop
       offset="0.54"
       style="stop-color:#990C00"
       id="stop3407" /><stop
       offset="0.99"
       style="stop-color:#A80D0E"
       id="stop3409" /><stop
       offset="1"
       style="stop-color:#A80D0E"
       id="stop3411" /></linearGradient><linearGradient
     id="XMLID_27_"
     gradientUnits="userSpaceOnUse"
     x1="178.52589"
     y1="115.5146"
     x2="137.43269"
     y2="78.683998"><stop
       offset="0"
       style="stop-color:#7E110B"
       id="stop3416" /><stop
       offset="0"
       style="stop-color:#7E110B"
       id="stop3418" /><stop
       offset="0.99"
       style="stop-color:#9E0C00"
       id="stop3420" /><stop
       offset="1"
       style="stop-color:#9E0C00"
       id="stop3422" /></linearGradient><linearGradient
     id="XMLID_28_"
     gradientUnits="userSpaceOnUse"
     x1="193.6235"
     y1="47.937"
     x2="173.15421"
     y2="26.053801"><stop
       offset="0"
       style="stop-color:#79130D"
       id="stop3427" /><stop
       offset="0"
       style="stop-color:#79130D"
       id="stop3429" /><stop
       offset="0.99"
       style="stop-color:#9E120B"
       id="stop3431" /><stop
       offset="1"
       style="stop-color:#9E120B"
       id="stop3433" /></linearGradient><radialGradient
     id="XMLID_29_"
     cx="143.8315"
     cy="79.388199"
     r="50.357601"
     gradientUnits="userSpaceOnUse"><stop
       offset="0"
       style="stop-color:#A80D00"
       id="stop3440" /><stop
       offset="0"
       style="stop-color:#A80D00"
       id="stop3442" /><stop
       offset="0.99"
       style="stop-color:#7E0E08"
       id="stop3444" /><stop
       offset="1"
       style="stop-color:#7E0E08"
       id="stop3446" /></radialGradient><radialGradient
     id="XMLID_30_"
     cx="74.0923"
     cy="145.75101"
     r="66.943703"
     gradientUnits="userSpaceOnUse"><stop
       offset="0"
       style="stop-color:#A30C00"
       id="stop3451" /><stop
       offset="0"
       style="stop-color:#A30C00"
       id="stop3453" /><stop
       offset="0.99"
       style="stop-color:#800E08"
       id="stop3455" /><stop
       offset="1"
       style="stop-color:#800E08"
       id="stop3457" /></radialGradient><linearGradient
     id="XMLID_31_"
     gradientUnits="userSpaceOnUse"
     x1="26.669901"
     y1="197.33591"
     x2="9.9886999"
     y2="140.742"><stop
       offset="0"
       style="stop-color:#8B2114"
       id="stop3462" /><stop
       offset="0"
       style="stop-color:#8B2114"
       id="stop3464" /><stop
       offset="0.43"
       style="stop-color:#9E100A"
       id="stop3466" /><stop
       offset="0.99"
       style="stop-color:#B3100C"
       id="stop3468" /><stop
       offset="1"
       style="stop-color:#B3100C"
       id="stop3470" /></linearGradient><linearGradient
     id="XMLID_32_"
     gradientUnits="userSpaceOnUse"
     x1="154.6411"
     y1="9.7979002"
     x2="192.039"
     y2="26.305901"><stop
       offset="0"
       style="stop-color:#B31000"
       id="stop3475" /><stop
       offset="0"
       style="stop-color:#B31000"
       id="stop3477" /><stop
       offset="0.44"
       style="stop-color:#910F08"
       id="stop3479" /><stop
       offset="0.99"
       style="stop-color:#791C12"
       id="stop3481" /><stop
       offset="1"
       style="stop-color:#791C12"
       id="stop3483" /></linearGradient><g
     id="g5303"
     transform="translate(1.5653861,0)"><polygon
       id="polygon3282"
       points="40.38,197.58 186.849,187.641 198.13,39.95 153.5,130.41 "
       clip-rule="evenodd"
       style="fill:url(#linearGradient5323);fill-rule:evenodd" /><polygon
       id="polygon3293"
       points="140.209,145.93 187.089,187.54 174.5,100.65 "
       clip-rule="evenodd"
       style="fill:url(#linearGradient5325);fill-rule:evenodd" /><polygon
       id="polygon3304"
       points="40.87,197.391 187.259,187.54 95.03,180.3 "
       clip-rule="evenodd"
       style="fill:url(#linearGradient5327);fill-rule:evenodd" /><polygon
       id="polygon3319"
       points="13.34,132.771 41,197.41 64.04,121.93 "
       clip-rule="evenodd"
       style="fill:url(#linearGradient5329);fill-rule:evenodd" /><polygon
       id="polygon3334"
       points="58.33,120.01 140.2,146.18 119,63.14 "
       clip-rule="evenodd"
       style="fill:url(#linearGradient5331);fill-rule:evenodd" /><polygon
       id="polygon3349"
       points="120,69.1 193.32,64.31 135.97,17.47 "
       clip-rule="evenodd"
       style="fill:url(#linearGradient5333);fill-rule:evenodd" /><polygon
       id="polygon3362"
       points="111.49,0.52 166.5,0.77 132.77,19.41 "
       clip-rule="evenodd"
       style="fill:url(#linearGradient5335);fill-rule:evenodd" /><polygon
       id="polygon3375"
       points="2.7,101.62 0,158.09 14.13,132.32 "
       clip-rule="evenodd"
       style="fill:url(#linearGradient5337);fill-rule:evenodd" /><path
       id="path3377"
       d="m 1.94,100.65 11.5,32.62 49.97,-11.211 57.05,-53.02 L 136.56,17.9 111.209,0 68.109,16.13 C 54.53,28.76 28.18,53.75 27.23,54.22 26.29,54.7 9.83,85.81 1.94,100.65 z"
       clip-rule="evenodd"
       inkscape:connector-curvature="0"
       style="fill:#ffffff;fill-rule:evenodd" /><path
       id="path3400"
       d="m 42.32,42.05 c 29.43,-29.18 67.37,-46.42 81.93,-31.73 14.551,14.69 -0.88,50.39 -30.31,79.56 -29.43,29.17 -66.9,47.36 -81.45,32.67 -14.56,-14.68 0.4,-51.33 29.83,-80.5 z"
       clip-rule="evenodd"
       inkscape:connector-curvature="0"
       style="fill:url(#linearGradient5339);fill-rule:evenodd" /><path
       id="path3413"
       d="m 41,197.38 22.86,-75.72 75.92,24.39 C 112.33,171.79 81.8,193.55 41,197.38 z"
       clip-rule="evenodd"
       inkscape:connector-curvature="0"
       style="fill:url(#linearGradient5341);fill-rule:evenodd" /><path
       id="path3424"
       d="m 120.56,68.89 19.49,77.2 C 162.98,121.98 183.56,96.06 193.639,64 l -73.079,4.89 z"
       clip-rule="evenodd"
       inkscape:connector-curvature="0"
       style="fill:url(#linearGradient5343);fill-rule:evenodd" /><path
       id="path3435"
       d="m 193.44,64.39 c 7.8,-23.54 9.6,-57.31 -27.181,-63.58 l -30.18,16.67 57.361,46.91 z"
       clip-rule="evenodd"
       inkscape:connector-curvature="0"
       style="fill:url(#linearGradient5345);fill-rule:evenodd" /><path
       id="path3437"
       d="m 0,157.75 c 1.08,38.851 29.11,39.43 41.05,39.771 L 13.47,133.11 0,157.75 z"
       clip-rule="evenodd"
       inkscape:connector-curvature="0"
       style="fill:#9e1209;fill-rule:evenodd" /><path
       id="path3448"
       d="m 120.669,69.01 c 17.62,10.83 53.131,32.58 53.851,32.98 1.119,0.63 15.31,-23.93 18.53,-37.81 l -72.381,4.83 z"
       clip-rule="evenodd"
       inkscape:connector-curvature="0"
       style="fill:url(#radialGradient5347);fill-rule:evenodd" /><path
       id="path3459"
       d="m 63.83,121.66 30.56,58.96 c 18.07,-9.8 32.22,-21.74 45.18,-34.53 L 63.83,121.66 z"
       clip-rule="evenodd"
       inkscape:connector-curvature="0"
       style="fill:url(#radialGradient5349);fill-rule:evenodd" /><path
       id="path3472"
       d="m 13.35,133.19 -4.33,51.56 c 8.17,11.16 19.41,12.13 31.2,11.26 -8.53,-21.23 -25.57,-63.68 -26.87,-62.82 z"
       clip-rule="evenodd"
       inkscape:connector-curvature="0"
       style="fill:url(#linearGradient5351);fill-rule:evenodd" /><path
       id="path3485"
       d="m 135.9,17.61 60.71,8.52 C 193.37,12.4 183.42,3.54 166.46,0.77 L 135.9,17.61 z"
       clip-rule="evenodd"
       inkscape:connector-curvature="0"
       style="fill:url(#linearGradient5353);fill-rule:evenodd" /></g><g
     transform="matrix(1.7074954,0,0,1.7074954,-89.944029,176.42077)"
     i:knockout="Off"
     id="g288"
     style="fill:#d43600;fill-opacity:1"><path
       inkscape:connector-curvature="0"
       i:knockout="Off"
       d="m 64.832,43.818 c 0,3.329 0.307,5.584 0.92,6.768 0.615,1.182 1.824,1.861 3.631,2.036 0.736,0.071 1.105,0.358 1.105,0.858 0,0.5 -0.299,0.75 -0.896,0.75 -0.193,0 -0.553,-0.025 -1.08,-0.075 -1.51,-0.116 -2.967,-0.175 -4.373,-0.175 -1.176,0 -2.221,0.033 -3.135,0.102 l -2.213,0.202 -1.766,0.151 c -0.49,0.051 -0.834,0.076 -1.027,0.076 -0.631,0 -0.947,-0.24 -0.947,-0.721 0,-0.393 0.176,-0.641 0.527,-0.748 1.195,-0.368 2.021,-0.863 2.479,-1.486 0.458,-0.623 0.686,-1.574 0.686,-2.854 v -2.5 L 58.77,45.176 V 26.128 c 0,-2.104 -0.264,-3.516 -0.791,-4.236 -0.863,-1.175 -2.27,-1.885 -4.221,-2.131 -0.723,-0.106 -1.082,-0.409 -1.082,-0.908 0,-0.499 0.246,-0.748 0.738,-0.748 0.193,0 0.51,0.026 0.949,0.077 1.354,0.137 2.838,0.205 4.455,0.205 1.775,0 3.928,-0.095 6.459,-0.287 2.969,-0.226 5.018,-0.338 6.143,-0.338 3.338,0 6.107,0.911 8.305,2.731 2.195,1.821 3.295,4.112 3.295,6.874 0,1.742 -0.488,3.325 -1.463,4.75 -0.977,1.425 -2.316,2.507 -4.02,3.245 -0.352,0.141 -0.52,0.317 -0.502,0.528 0.018,0.176 0.105,0.386 0.264,0.632 0.158,0.246 0.396,0.658 0.713,1.237 l 2.348,4.159 2.717,4.817 c 0.932,1.632 1.764,2.764 2.494,3.396 0.729,0.632 1.586,0.947 2.572,0.947 0.404,0 0.781,-0.035 1.135,-0.105 0.211,-0.052 0.404,-0.079 0.58,-0.079 0.316,0 0.475,0.203 0.475,0.605 0,0.51 -0.719,1.087 -2.152,1.732 -1.436,0.646 -2.707,0.969 -3.816,0.969 -1.811,0 -3.48,-0.886 -5.008,-2.658 C 77.828,49.77 75.841,46.418 73.4,41.487 72.451,39.539 71.67,38.306 71.054,37.789 70.438,37.272 69.437,37.013 68.048,37.013 h -1.633 l -1.188,0.21 c -0.264,0.14 -0.395,0.561 -0.395,1.261 v 5.334 z m 0,-20.58 v 9.126 c 0,1.125 0.145,1.838 0.436,2.137 0.289,0.299 0.98,0.448 2.07,0.448 3.129,0 5.068,-0.057 5.814,-0.171 0.748,-0.114 1.447,-0.47 2.098,-1.068 1.283,-1.16 1.926,-2.76 1.926,-4.8 0,-2.655 -0.867,-4.849 -2.598,-6.581 -1.732,-1.732 -3.936,-2.598 -6.607,-2.598 -1.195,0 -2.018,0.251 -2.467,0.752 -0.448,0.5 -0.672,1.419 -0.672,2.755 z"
       id="path290"
       style="fill:#d43600;fill-opacity:1" /><path
       inkscape:connector-curvature="0"
       i:knockout="Off"
       d="m 114.316,32.103 v 16.322 c 0,1.685 0.141,2.726 0.422,3.12 0.281,0.394 1.037,0.592 2.268,0.592 l 0.605,-0.026 c 0.211,0 0.369,0.019 0.475,0.054 0.299,0.107 0.449,0.305 0.449,0.592 0,0.629 -0.6,0.943 -1.799,0.943 h -1.27 c -0.723,0 -1.287,0.018 -1.693,0.052 -1.076,0.069 -2.328,0.276 -3.756,0.62 -0.176,0.053 -0.336,0.078 -0.477,0.078 -0.387,0 -0.58,-0.324 -0.58,-0.973 0,-0.35 0.018,-0.648 0.053,-0.893 0.035,-0.351 0.053,-0.613 0.053,-0.789 0,-0.525 -0.115,-0.797 -0.344,-0.814 -0.088,0 -0.229,0.105 -0.42,0.315 l -0.949,0.974 c -1.613,1.682 -3.553,2.523 -5.816,2.523 -2.596,0 -4.553,-0.721 -5.87,-2.162 -1.316,-1.44 -1.975,-3.576 -1.975,-6.405 0,-3.743 0.07,-6.985 0.211,-9.727 0.018,-0.492 0.025,-0.914 0.025,-1.265 0,-1.195 -0.518,-1.836 -1.557,-1.924 l -1.057,-0.079 c -0.492,-0.035 -0.721,-0.273 -0.686,-0.715 0.018,-0.335 0.285,-0.561 0.807,-0.675 0.52,-0.115 1.52,-0.172 3,-0.172 1.375,0 2.6,-0.177 3.674,-0.531 0.477,-0.141 0.846,-0.211 1.109,-0.211 0.299,0 0.449,0.202 0.449,0.606 0,0.474 -0.018,0.957 -0.053,1.448 -0.158,1.861 -0.236,5.118 -0.236,9.771 0,3.582 0.324,5.974 0.972,7.176 0.647,1.202 1.944,1.804 3.892,1.804 1.523,0 2.699,-0.453 3.523,-1.359 0.824,-0.906 1.236,-2.21 1.236,-3.913 v -9.82 c 0,-1.492 -0.137,-2.409 -0.41,-2.751 -0.271,-0.342 -1.041,-0.592 -2.305,-0.75 -0.545,-0.053 -0.816,-0.267 -0.816,-0.641 0,-0.552 0.527,-0.828 1.584,-0.828 3.061,0 5.182,-0.207 6.361,-0.621 0.229,-0.086 0.414,-0.129 0.555,-0.129 0.246,-0.018 0.369,0.158 0.369,0.526 l -0.023,0.657 z"
       id="path292"
       style="fill:#d43600;fill-opacity:1" /><path
       inkscape:connector-curvature="0"
       i:knockout="Off"
       d="m 128.143,35.708 c 0,0.246 0.061,0.377 0.184,0.395 l 0.264,-0.29 c 1.789,-2.701 4.233,-4.052 7.338,-4.052 2.701,0 4.881,0.906 6.539,2.717 1.655,1.812 2.485,4.195 2.485,7.149 0,3.834 -1.125,6.987 -3.374,9.458 -2.25,2.472 -5.115,3.707 -8.595,3.707 -1.213,0 -2.472,-0.203 -3.782,-0.609 -1.309,-0.405 -2.316,-0.908 -3.018,-1.508 -0.229,-0.213 -0.396,-0.31 -0.502,-0.292 -0.176,0.018 -0.553,0.421 -1.133,1.211 -0.701,0.948 -1.184,1.431 -1.447,1.448 -0.281,0.018 -0.42,-0.22 -0.42,-0.711 0,-0.316 0.018,-0.747 0.053,-1.292 0.105,-1.247 0.158,-2.187 0.158,-2.819 V 24.05 c 0,-1.282 -0.225,-2.213 -0.674,-2.793 -0.447,-0.58 -1.182,-0.87 -2.201,-0.87 -0.334,0 -0.5,-0.196 -0.5,-0.587 0,-0.355 0.201,-0.587 0.607,-0.694 l 1.67,-0.369 c 1.605,-0.386 3.451,-1.21 5.535,-2.474 0.156,-0.087 0.305,-0.14 0.445,-0.158 0.244,-0.018 0.367,0.457 0.367,1.423 v 18.18 z m 0,2.401 v 10.159 c 0,0.827 0.471,1.777 1.416,2.85 1.295,1.514 2.913,2.27 4.855,2.27 1.838,0 3.303,-0.726 4.396,-2.177 1.093,-1.451 1.643,-3.408 1.643,-5.871 0,-2.938 -0.727,-5.383 -2.18,-7.335 -1.453,-1.952 -3.273,-2.929 -5.46,-2.929 -2.116,-0.002 -3.674,1.01 -4.67,3.033 z"
       id="path294"
       style="fill:#d43600;fill-opacity:1" /><path
       inkscape:connector-curvature="0"
       i:knockout="Off"
       d="m 155.328,37.664 4.494,8.564 c 0.424,0.791 0.732,1.186 0.926,1.186 0.264,0 0.66,-0.66 1.188,-1.98 l 1.189,-2.957 c 1.197,-3.01 1.795,-5.166 1.795,-6.469 0,-0.616 -0.26,-1.183 -0.779,-1.703 -0.521,-0.519 -1.16,-0.867 -1.918,-1.043 -0.477,-0.087 -0.723,-0.27 -0.74,-0.549 -0.018,-0.384 0.176,-0.576 0.582,-0.576 0.193,0 0.484,0.017 0.871,0.051 1.463,0.153 2.73,0.23 3.805,0.23 0.986,0 1.779,-0.036 2.379,-0.107 0.439,-0.054 0.738,-0.081 0.898,-0.081 0.352,0 0.527,0.192 0.527,0.575 0,0.349 -0.229,0.584 -0.686,0.706 -1.055,0.282 -1.951,1.337 -2.689,3.167 l -0.529,1.32 -9.752,24.257 c -0.227,0.545 -0.576,0.818 -1.049,0.818 -0.141,0 -0.367,-0.009 -0.682,-0.026 l -1.469,-0.105 c -0.281,-0.018 -0.412,-0.123 -0.395,-0.315 0.018,-0.158 0.098,-0.334 0.238,-0.527 2.871,-3.549 4.309,-5.975 4.309,-7.273 0,-0.369 -0.193,-0.939 -0.58,-1.713 l -8.41,-16.576 -0.713,-1.423 c -0.422,-0.773 -1.055,-1.317 -1.9,-1.634 -0.316,-0.124 -0.475,-0.3 -0.475,-0.53 0,-0.459 0.264,-0.689 0.791,-0.689 0.246,0 0.502,0.017 0.766,0.051 1.494,0.153 2.855,0.23 4.088,0.23 1.6,0 3.199,-0.097 4.799,-0.291 0.229,-0.035 0.404,-0.053 0.527,-0.053 0.457,0 0.686,0.23 0.686,0.69 0,0.389 -0.211,0.628 -0.635,0.716 l -0.82,0.132 c -0.988,0.176 -1.482,0.738 -1.482,1.687 -0.001,0.387 0.281,1.133 0.845,2.24 z"
       id="path296"
       style="fill:#d43600;fill-opacity:1" /></g></svg>