<?xml version="1.0" encoding="UTF-8" standalone="no"?>
<svg
   xmlns:dc="http://purl.org/dc/elements/1.1/"
   xmlns:cc="http://creativecommons.org/ns#"
   xmlns:rdf="http://www.w3.org/1999/02/22-rdf-syntax-ns#"
   xmlns:svg="http://www.w3.org/2000/svg"
   xmlns="http://www.w3.org/2000/svg"
   xmlns:sodipodi="http://sodipodi.sourceforge.net/DTD/sodipodi-0.dtd"
   xmlns:inkscape="http://www.inkscape.org/namespaces/inkscape"
   width="320.81857"
   height="224.5"
   viewBox="0 0 256.65486 179.6"
   version="1.1"
   id="svg2"
   inkscape:version="0.48.4 r9939"
   sodipodi:docname="csharpsvg.svg">
  <metadata
     id="metadata13">
    <rdf:RDF>
      <cc:Work
         rdf:about="">
        <dc:format>image/svg+xml</dc:format>
        <dc:type
           rdf:resource="http://purl.org/dc/dcmitype/StillImage" />
        <dc:title></dc:title>
      </cc:Work>
    </rdf:RDF>
  </metadata>
  <defs
     id="defs11" />
  <sodipodi:namedview
     pagecolor="#ffffff"
     bordercolor="#666666"
     borderopacity="1"
     objecttolerance="10"
     gridtolerance="10"
     guidetolerance="10"
     inkscape:pageopacity="0"
     inkscape:pageshadow="2"
     inkscape:window-width="958"
     inkscape:window-height="1059"
     id="namedview9"
     showgrid="false"
     fit-margin-top="0"
     fit-margin-left="0"
     fit-margin-right="0"
     fit-margin-bottom="0"
     inkscape:zoom="0.60161725"
     inkscape:cx="175.64606"
     inkscape:cy="114.1625"
     inkscape:window-x="960"
     inkscape:window-y="19"
     inkscape:window-maximized="0"
     inkscape:current-layer="svg2" />
  <g
     id="#000000ff"
     transform="translate(-47.642647,-38.73)">
    <path
       d="m 277.47,77.82 c 0,-13.03 -0.01,-26.05 0.01,-39.08 2.75,-0.01 5.51,-0.01 8.27,-0.01 0.04,12.3 0,24.6 0.02,36.9 6.18,-1.64 12.34,-3.32 18.52,-4.96 0.01,6.86 0.01,13.72 0,20.59 -6.17,1.67 -12.36,3.31 -18.52,4.99 0,16.77 -0.01,33.55 0,50.32 6.18,-1.64 12.34,-3.32 18.52,-4.96 0.01,6.86 0,13.72 0,20.58 -6.17,1.68 -12.35,3.31 -18.52,4.99 -0.02,12.14 0,24.28 -0.01,36.42 -2.76,0 -5.53,0 -8.29,-0.01 -0.01,-11.44 0.01,-22.89 0,-34.33 -12.32,3.31 -24.63,6.62 -36.94,9.96 -0.01,13.04 0.01,26.07 -0.01,39.11 -2.78,0 -5.56,0 -8.34,0 -0.02,-12.3 0.01,-24.61 -0.01,-36.91 -6.16,1.64 -12.3,3.32 -18.46,4.95 -0.01,-6.9 -0.01,-13.8 0,-20.7 6.15,-1.68 12.31,-3.3 18.46,-4.98 0,-16.73 0.02,-33.47 0,-50.2 -6.16,1.63 -12.3,3.31 -18.46,4.95 -0.01,-6.87 -0.01,-13.73 0,-20.59 6.15,-1.68 12.31,-3.3 18.46,-4.98 0.01,-12.15 0,-24.31 0.01,-36.47 2.78,0 5.56,0 8.35,0.01 0.01,11.45 -0.01,22.91 0,34.37 12.32,-3.31 24.63,-6.62 36.94,-9.96 m -36.93,30.57 c -0.02,16.74 -0.01,33.48 -0.01,50.22 12.32,-3.32 24.63,-6.64 36.94,-9.96 0,-16.74 0.01,-33.47 -0.01,-50.21 -12.31,3.3 -24.61,6.64 -36.92,9.95 z"
       id="path5"
       inkscape:connector-curvature="0"
       style="fill:#000000" />
    <path
       d="m 90.61,48.54 c 14.64,-7.16 31.43,-9.11 47.52,-7.33 15.29,1.72 30.23,8.48 40.71,19.9 7.61,8.14 12.59,18.38 15.74,28.99 -7.32,1.74 -14.64,3.48 -21.97,5.2 C 168.74,82.86 161.36,70.65 149.35,64.66 136,58.08 119.97,58.65 106.05,63.12 90.65,68.18 79.9,82.13 75.18,97.19 c -5.42,17.27 -5.25,35.9 -2.15,53.59 2.48,14.26 9.52,28.14 21.54,36.63 13.16,9.65 30.88,11.34 46.39,7.41 11.88,-3.02 21.86,-11.61 27.4,-22.45 3.16,-5.87 5.21,-12.27 6.79,-18.73 7.44,1.9 14.9,3.74 22.33,5.7 -4.13,15.71 -11.67,31.2 -24.58,41.53 -13.32,10.95 -30.88,15.64 -47.94,15.1 C 105.79,215.78 85.45,210.46 71.9,196.13 58.31,181.41 50.73,161.83 48.46,142.09 46.58,123.56 47.65,104.27 54.77,86.88 61.48,70.28 74.54,56.4 90.61,48.54 z"
       id="path7"
       inkscape:connector-curvature="0"
       style="fill:#000000" />
  </g>
</svg>
