<?xml version="1.0" encoding="UTF-8" standalone="no"?>
<!-- Generator: Adobe Illustrator 16.0.3, SVG Export Plug-In . SVG Version: 6.00 Build 0)  -->

<svg
   xmlns:dc="http://purl.org/dc/elements/1.1/"
   xmlns:cc="http://creativecommons.org/ns#"
   xmlns:rdf="http://www.w3.org/1999/02/22-rdf-syntax-ns#"
   xmlns:svg="http://www.w3.org/2000/svg"
   xmlns="http://www.w3.org/2000/svg"
   xmlns:sodipodi="http://sodipodi.sourceforge.net/DTD/sodipodi-0.dtd"
   xmlns:inkscape="http://www.inkscape.org/namespaces/inkscape"
   version="1.1"
   id="Layer_1"
   x="0px"
   y="0px"
   width="337.77802"
   height="369.45871"
   viewBox="0 0 337.77802 369.4587"
   enable-background="new 0 0 1000 1405.488"
   xml:space="preserve"
   inkscape:version="0.48.4 r9939"
   sodipodi:docname="c.svg"><metadata
     id="metadata187"><rdf:RDF><cc:Work
         rdf:about=""><dc:format>image/svg+xml</dc:format><dc:type
           rdf:resource="http://purl.org/dc/dcmitype/StillImage" /><dc:title></dc:title></cc:Work></rdf:RDF></metadata><defs
     id="defs185" /><sodipodi:namedview
     pagecolor="#ffffff"
     bordercolor="#666666"
     borderopacity="1"
     objecttolerance="10"
     gridtolerance="10"
     guidetolerance="10"
     inkscape:pageopacity="0"
     inkscape:pageshadow="2"
     inkscape:window-width="958"
     inkscape:window-height="1059"
     id="namedview183"
     showgrid="false"
     fit-margin-top="0"
     fit-margin-left="0"
     fit-margin-right="0"
     fit-margin-bottom="0"
     inkscape:zoom="0.47493026"
     inkscape:cx="240.57108"
     inkscape:cy="-4.7928508"
     inkscape:window-x="960"
     inkscape:window-y="19"
     inkscape:window-maximized="0"
     inkscape:current-layer="Layer_1" /><path
     d="m 239.573,141.57198 c 0,0 -5.446,-50.775999 -55.826,-52.185999 -50.38,-1.41 -76.254,38.082999 -76.254,94.499999 0,56.417 28.595,101.553 77.614,101.553 49.019,0 54.466,-56.417 54.466,-56.417 l 93.953,5.641 c 0,0 5.532,50.954 -33.784,89.829 -39.317,38.872 -87.575,45.223 -121.276,44.959 -33.7,-0.269 -80.427,0.528 -125.612,-45.752 C 7.667,277.41898 0,232.45998 0,188.29598 0,144.12998 8.569,85.622981 62.296,41.255981 98.811,11.107981 135.825,-1.8554687e-5 172.846,-1.8554687e-5 327.398,-1.8554687e-5 337.778,142.54398 337.778,142.54398 l -98.205,-0.972 z"
     id="path5"
     inkscape:connector-curvature="0"
     style="fill:#a8b9cc" /></svg>