<?xml version="1.0" encoding="UTF-8" standalone="no"?>
<!-- Created with Inkscape (http://www.inkscape.org/) -->

<svg
   xmlns:dc="http://purl.org/dc/elements/1.1/"
   xmlns:cc="http://creativecommons.org/ns#"
   xmlns:rdf="http://www.w3.org/1999/02/22-rdf-syntax-ns#"
   xmlns:svg="http://www.w3.org/2000/svg"
   xmlns="http://www.w3.org/2000/svg"
   xmlns:sodipodi="http://sodipodi.sourceforge.net/DTD/sodipodi-0.dtd"
   xmlns:inkscape="http://www.inkscape.org/namespaces/inkscape"
   width="82.773262"
   height="65.104172"
   id="svg2"
   inkscape:label="Pozadí"
   sodipodi:version="0.32"
   inkscape:version="0.48.4 r9939"
   version="1.0"
   sodipodi:docname="C_plus_plus.svg"
   inkscape:output_extension="org.inkscape.output.svg.inkscape">
  <defs
     id="defs3">
    <inkscape:perspective
       sodipodi:type="inkscape:persp3d"
       inkscape:vp_x="0 : 526.18109 : 1"
       inkscape:vp_y="0 : 1000 : 0"
       inkscape:vp_z="744.09448 : 526.18109 : 1"
       inkscape:persp3d-origin="372.04724 : 350.78739 : 1"
       id="perspective9" />
  </defs>
  <sodipodi:namedview
     id="base"
     pagecolor="#ffffff"
     bordercolor="#666666"
     borderopacity="1.0"
     inkscape:pageopacity="0.0"
     inkscape:pageshadow="2"
     inkscape:zoom="5.6568543"
     inkscape:cx="53.656851"
     inkscape:cy="47.673839"
     inkscape:document-units="px"
     inkscape:current-layer="layer1"
     showgrid="false"
     inkscape:window-width="958"
     inkscape:window-height="1059"
     inkscape:window-x="960"
     inkscape:window-y="19"
     fit-margin-top="0"
     fit-margin-left="0"
     fit-margin-right="0"
     fit-margin-bottom="0"
     inkscape:window-maximized="0" />
  <metadata
     id="metadata6">
    <rdf:RDF>
      <cc:Work
         rdf:about="">
        <dc:format>image/svg+xml</dc:format>
        <dc:type
           rdf:resource="http://purl.org/dc/dcmitype/StillImage" />
        <dc:title></dc:title>
      </cc:Work>
    </rdf:RDF>
  </metadata>
  <g
     inkscape:label="Vrstva 1"
     inkscape:groupmode="layer"
     id="layer1"
     transform="translate(-3.7373917,-17.447915)">
    <g
       id="g2415">
      <path
         id="text2382"
         d="m 54.341278,23.416146 0,8.952351 C 51.4832,29.706659 48.429036,27.71725 45.178782,26.400263 41.956453,25.083386 38.524021,24.42492 34.881478,24.424862 c -7.173114,5.8e-5 -12.665004,2.199615 -16.475684,6.598681 -3.810717,4.371145 -5.716067,10.703628 -5.716054,18.997472 -1.3e-5,8.265884 1.905337,14.598367 5.716054,18.997472 3.81068,4.371107 9.30257,6.556654 16.475684,6.55665 3.642543,4e-6 7.074975,-0.658461 10.297304,-1.975401 3.250254,-1.316925 6.304418,-3.306334 9.162496,-5.968234 l 0,8.86829 c -2.970159,2.017433 -6.122391,3.530506 -9.456705,4.539223 -3.306388,1.00871 -6.808869,1.51307 -10.507453,1.51307 -9.498761,0 -16.980059,-2.900055 -22.443915,-8.700172 C 6.4693217,68.023794 3.7373877,60.08017 3.7373917,50.021015 c -4e-6,-10.087112 2.73193,-18.030739 8.1958133,-23.8309 5.463856,-5.828072 12.945154,-8.742138 22.443915,-8.7422 3.754625,6.2e-5 7.285124,0.50442 10.591511,1.513073 3.334317,0.980758 6.458528,2.465808 9.372647,4.455158"
         style="font-size:40px;font-style:normal;font-weight:normal;fill:#000000;fill-opacity:1;stroke:none;font-family:Bitstream Vera Sans"
         inkscape:connector-curvature="0" />
      <text
         id="text2386"
         y="62.539062"
         x="25.666044"
         style="font-size:40px;font-style:normal;font-weight:normal;fill:#000000;fill-opacity:1;stroke:none;font-family:Bitstream Vera Sans"
         xml:space="preserve"><tspan
           y="62.539062"
           x="25.666044"
           id="tspan2388"
           sodipodi:role="line">+</tspan></text>
      <text
         xml:space="preserve"
         style="font-size:40px;font-style:normal;font-weight:normal;fill:#000000;fill-opacity:1;stroke:none;font-family:Bitstream Vera Sans"
         x="57.233311"
         y="62.539062"
         id="text2411"><tspan
           sodipodi:role="line"
           id="tspan2413"
           x="57.233311"
           y="62.539062">+</tspan></text>
    </g>
  </g>
</svg>
