<?xml version="1.0" standalone="no"?>
<!DOCTYPE svg PUBLIC "-//W3C//DTD SVG 20010904//EN"
 "http://www.w3.org/TR/2001/REC-SVG-20010904/DTD/svg10.dtd">
<svg version="1.0" xmlns="http://www.w3.org/2000/svg"
 width="615.000000pt" height="425.000000pt" viewBox="0 0 615.000000 425.000000"
 preserveAspectRatio="xMidYMid meet">
<metadata>
Created by potrace 1.11, written by Peter Selinger 2001-2013
</metadata>
<g transform="translate(0.000000,425.000000) scale(0.100000,-0.100000)"
fill="#000000" stroke="none">
<path d="M2050 4069 c-152 -15 -324 -77 -450 -162 -66 -45 -186 -163 -236
-233 -60 -84 -117 -201 -150 -309 l-28 -90 -3 -505 c-2 -278 0 -732 5 -1010 8
-499 8 -506 31 -558 78 -174 333 -218 470 -80 23 24 50 65 61 95 19 52 20 79
20 946 0 562 4 923 10 976 21 163 95 251 259 309 42 15 191 17 1556 20 1048 2
1531 -1 1580 -8 158 -25 246 -132 245 -298 -1 -107 -36 -179 -114 -238 -55
-42 -90 -52 -226 -64 -153 -13 -254 -40 -375 -100 -219 -107 -375 -275 -446
-477 -30 -86 -38 -253 -39 -815 -2 -486 -1 -498 20 -545 46 -104 137 -163 252
-163 128 0 229 63 280 175 22 49 23 61 30 515 4 256 12 496 18 533 25 166 121
257 293 278 196 23 232 31 302 60 257 107 456 343 530 629 26 101 38 271 25
372 -50 416 -344 705 -760 748 -123 12 -3030 12 -3160 -1z"/>
<path d="M454 3454 c-96 -35 -164 -127 -184 -245 -14 -89 -14 -2135 1 -2232
59 -400 313 -686 695 -784 64 -17 129 -18 839 -15 994 5 1379 15 1460 37 278
77 490 293 581 591 25 81 28 104 28 254 1 171 -12 248 -61 365 -126 301 -399
483 -763 510 -126 9 -179 23 -235 61 -84 56 -124 134 -125 241 0 121 62 222
168 275 47 23 49 23 562 29 407 4 523 8 555 19 60 22 138 104 160 170 41 120
13 270 -66 348 -80 81 -46 77 -655 76 -466 -1 -552 -4 -625 -19 -275 -55 -504
-234 -624 -486 -160 -338 -80 -785 189 -1054 151 -151 330 -227 576 -244 83
-6 130 -14 167 -31 230 -99 229 -436 -2 -542 l-50 -23 -912 -3 c-981 -3 -984
-3 -1084 48 -45 24 -113 90 -136 133 -47 91 -45 59 -54 1182 -6 733 -12 1077
-20 1115 -21 99 -72 171 -153 212 -53 28 -174 34 -232 12z"/>
</g>
</svg>
